HIERARCHY
ROOT Hips
{
	OFFSET	0.00	0.00	0.00
	CHANNELS 6 Xposition Yposition Zposition Zrotation Xrotation Yrotation
	JOINT LeftUpLeg
	{
		OFFSET	 0.126116	-0.014019	-0.065224
		CHANNELS 3 Zrotation Xrotation Yrotation
		JOINT LeftLeg
		{
			OFFSET	 0.000000	 0.000000	 0.569914
			CHANNELS 3 Zrotation Xrotation Yrotation
			JOINT LeftFoot
			{
				OFFSET	 0.000000	 0.000000	 0.544423
				CHANNELS 3 Zrotation Xrotation Yrotation
				JOINT LeftToeBase
				{
					OFFSET	 0.000000	 0.000000	 0.207117
					CHANNELS 3 Zrotation Xrotation Yrotation
					End Site
					{
						OFFSET	 0.000000	 0.000000	 0.207117
					}
				}
			}
		}
	}
	JOINT RightUpLeg
	{
		OFFSET	-0.124023	-0.008373	-0.065224
		CHANNELS 3 Zrotation Xrotation Yrotation
		JOINT RightLeg
		{
			OFFSET	 0.000000	 0.000000	 0.570047
			CHANNELS 3 Zrotation Xrotation Yrotation
			JOINT RightFoot
			{
				OFFSET	 0.000000	 0.000000	 0.544354
				CHANNELS 3 Zrotation Xrotation Yrotation
				JOINT RightToeBase
				{
					OFFSET	 0.000000	 0.000000	 0.207540
					CHANNELS 3 Zrotation Xrotation Yrotation
					End Site
					{
						OFFSET	 0.000000	 0.000000	 0.207540
					}
				}
			}
		}
	}
	JOINT Spine
	{
		OFFSET	 0.000184	-0.007763	 0.117403
		CHANNELS 3 Zrotation Xrotation Yrotation
		JOINT Spine1
		{
			OFFSET	 0.000000	 0.000000	 0.137269
			CHANNELS 3 Zrotation Xrotation Yrotation
			JOINT Spine2
			{
				OFFSET	 0.000000	 0.000000	 0.156879
				CHANNELS 3 Zrotation Xrotation Yrotation
				JOINT LeftShoulder
				{
					OFFSET	 0.080501	-0.002496	 0.160144
					CHANNELS 3 Zrotation Xrotation Yrotation
					JOINT LeftArm
					{
						OFFSET	 0.000000	 0.000000	 0.164363
						CHANNELS 3 Zrotation Xrotation Yrotation
						JOINT LeftForeArm
						{
							OFFSET	 0.000000	 0.000000	 0.364576
							CHANNELS 3 Zrotation Xrotation Yrotation
							JOINT LeftHand
							{
								OFFSET	 0.000000	 0.000000	 0.360812
								CHANNELS 3 Zrotation Xrotation Yrotation
								JOINT LeftHandIndex1
								{
									OFFSET	 0.000000	 0.000000	 0.086006
									CHANNELS 3 Zrotation Xrotation Yrotation
									JOINT LeftHandIndex2
									{
										OFFSET	 0.000000	 0.000000	 0.047237
										CHANNELS 3 Zrotation Xrotation Yrotation
										JOINT LeftHandIndex3
										{
											OFFSET	-0.004284	-0.000551	 0.038165
											CHANNELS 3 Zrotation Xrotation Yrotation
											End Site
											{
												OFFSET	-0.004284	-0.000551	 0.038165
											}
										}
									}
								}
							}
						}
					}
				}
				JOINT Neck
				{
					OFFSET	 0.000000	 0.000000	 0.176489
					CHANNELS 3 Zrotation Xrotation Yrotation
					JOINT Head
					{
						OFFSET	 0.000000	-0.001747	 0.077940
						CHANNELS 3 Zrotation Xrotation Yrotation
						End Site
						{
							OFFSET	 0.000000	-0.001747	 0.077940
						}
					}
				}
				JOINT RightShoulder
				{
					OFFSET	-0.080363	 0.000306	 0.159706
					CHANNELS 3 Zrotation Xrotation Yrotation
					JOINT RightArm
					{
						OFFSET	 0.000000	 0.000000	 0.164196
						CHANNELS 3 Zrotation Xrotation Yrotation
						JOINT RightForeArm
						{
							OFFSET	 0.000000	 0.000000	 0.365611
							CHANNELS 3 Zrotation Xrotation Yrotation
							JOINT RightHand
							{
								OFFSET	 0.000000	 0.000000	 0.360648
								CHANNELS 3 Zrotation Xrotation Yrotation
								JOINT RightHandIndex1
								{
									OFFSET	 0.000000	 0.000000	 0.069977
									CHANNELS 3 Zrotation Xrotation Yrotation
									JOINT RightHandIndex2
									{
										OFFSET	 0.000000	 0.000000	 0.052305
										CHANNELS 3 Zrotation Xrotation Yrotation
										JOINT RightHandIndex3
										{
											OFFSET	 0.009002	-0.000782	 0.042196
											CHANNELS 3 Zrotation Xrotation Yrotation
											End Site
											{
												OFFSET	 0.009002	-0.000782	 0.042196
											}
										}
									}
								}
							}
						}
					}
				}
			}
		}
	}
}
MOTION
Frames:    13
Frame Time: 0.03333334
-0.445911	-0.033169	 1.272345	 179.994900	 0.172499	 0.025871	-3.018718	-1.158901	 177.693600	 8.292241	-10.414710	 1.405776	-41.574580	 68.927180	 18.984880	-2.385833	 28.452760	 0.000004	 4.505347	-1.997266	-177.980400	-7.484882	-11.581840	-1.822847	 43.104420	 69.482520	-20.251590	 2.384659	 28.388700	-0.000001	-2.624281	 5.939262	 0.137485	-0.742837	-9.337952	 0.507351	 3.586378	 12.934090	-1.274651	-91.776230	 78.527400	-180.000000	-8.451020	-11.494710	-10.017200	 8.776999	-0.090771	-0.477594	-5.018736	-4.201644	-4.992417	-4.130319	 21.525730	 0.991547	-5.167930	 0.731704	 3.519349	-1.378229	 35.397820	-2.634230	-0.000002	-3.783157	-0.089647	-10.154150	-8.631905	-0.768336	 89.782090	 78.203870	 180.000000	 6.159308	-12.641550	 9.674669	-12.715110	-0.056271	 0.481394	 7.933539	-1.979818	 24.807760	 5.716227	 19.173190	-3.685159	 5.027444	 0.246877	-9.377972	-2.350882	 35.473990	 5.254307
-0.448529	-0.033226	 1.270656	-179.684600	-4.082239	 1.962669	 29.620380	-3.238624	 171.920300	-8.647393	-17.259400	-2.753886	-6.379287	 71.904710	-1.565699	-2.385833	 28.452760	 0.000004	 8.521267	 1.117124	 179.774400	 3.001051	-14.341810	 0.366285	 14.969310	 69.550050	-1.142799	 2.384659	 28.388700	-0.000001	-1.141330	 9.530847	-3.189208	 0.093847	 0.874885	-0.784170	 0.541138	-3.397611	 3.114685	-91.776210	 78.527420	-180.000000	-51.960660	 2.074280	 1.080571	 0.564923	-1.708279	-33.793740	-0.442875	-12.871270	-1.989532	-4.130319	 21.525730	 0.991547	-5.167930	 0.731704	 3.519349	-1.378229	 35.397820	-2.634230	-2.977247	 0.944857	 1.907754	-14.630170	-27.908390	-14.865590	 89.782070	 78.203890	-180.000000	 23.469370	-4.614900	-1.678883	-16.288880	-6.626400	 32.587020	-17.274520	 53.027280	 123.437800	 5.716227	 19.173190	-3.685159	 5.027444	 0.246877	-9.377972	-2.350882	 35.473990	 5.254307
-0.449422	-0.034447	 1.266495	-179.168700	-3.597771	 2.446161	 28.389730	-8.591049	 171.600800	-10.098880	-28.774460	-5.177381	-16.552960	 78.489600	 9.402267	-2.385833	 28.452760	 0.000004	 7.839378	-4.403771	-178.662400	 3.695965	-24.956180	 0.917329	 22.181500	 74.130250	-9.427030	 2.384659	 28.388700	-0.000001	-2.649213	 8.722313	-3.560209	-0.859689	 2.221509	-1.728029	 0.521712	-4.131190	 3.924577	-91.776200	 78.527400	-180.000000	-47.626990	 16.163320	 29.934850	-2.443128	-2.908646	-98.957280	-0.541030	-12.680070	-2.103678	-4.130319	 21.525730	 0.991547	-5.167930	 0.731704	 3.519349	-1.378229	 35.397820	-2.634230	-3.133841	 1.141836	 2.371757	-15.068130	-28.381620	-16.570190	 89.782170	 78.203890	 179.999900	 19.549470	 8.788401	-20.201910	-5.190434	-11.880340	 94.205170	 27.703200	 46.389640	 57.666850	 5.716227	 19.173190	-3.685159	 5.027444	 0.246877	-9.377972	-2.350882	 35.473990	 5.254307
-0.451387	-0.036639	 1.260012	-178.426000	-2.991346	 2.446038	 25.779630	-12.946740	 171.869600	-12.034250	-40.185090	-8.204444	-55.168360	 83.885410	 48.603840	-2.385833	 28.452760	 0.000004	 7.524247	-9.656649	-175.396600	 4.351566	-35.120120	 1.628342	 39.779900	 77.202310	-28.456000	 2.384659	 28.388700	-0.000001	-5.070192	 7.994913	-3.449392	-2.386923	 3.551249	-2.467910	 0.543813	-4.493711	 4.540917	-91.776190	 78.527380	-180.000000	 4.877038	 53.206780	-10.550740	-3.663169	-2.457356	-124.375700	-0.515019	-12.580060	-2.112755	-4.130319	 21.525730	 0.991547	-5.167930	 0.731704	 3.519349	-1.378229	 35.397820	-2.634230	-3.042757	 0.540698	 1.736525	-14.811320	-27.584610	-15.369040	 89.782170	 78.203890	 179.999900	-19.412550	 44.003300	 22.196330	-2.589626	-9.504213	 110.174400	 10.609070	 13.195550	 15.800810	 5.716227	 19.173190	-3.685159	 5.027444	 0.246877	-9.377972	-2.350882	 35.473990	 5.254307
-0.458759	-0.039783	 1.254268	-177.015000	-2.703350	 2.227700	 21.383380	-14.692550	 172.878400	-13.361650	-47.223390	-10.312840	-110.590900	 82.791330	 104.193200	-2.385833	 28.452760	 0.000004	 5.894974	-12.801210	-171.862500	 5.257525	-41.225650	 2.463364	 50.241740	 76.936810	-40.375120	 2.384659	 28.388700	-0.000001	-7.446250	 7.005989	-3.825806	-3.456967	 5.451282	-0.957534	 0.209043	-5.070050	 3.985847	-91.776220	 78.527350	-180.000000	 52.652520	 45.799610	-83.034890	-1.664383	-2.886845	-83.728260	-0.606203	-12.181240	-2.133306	-4.130319	 21.525730	 0.991547	-5.167930	 0.731704	 3.519349	-1.378229	 35.397820	-2.634230	-3.445976	 0.721193	 1.077086	-14.905650	-27.210360	-13.805100	 89.782140	 78.203900	 180.000000	-62.752270	 41.809020	 91.035900	-11.057530	-9.274466	 61.571080	-9.444001	-8.056897	 19.768760	 5.716227	 19.173190	-3.685159	 5.027444	 0.246877	-9.377972	-2.350882	 35.473990	 5.254307
-0.471194	-0.042267	 1.254206	-175.620700	-2.817719	 2.603545	 18.062580	-13.716730	 173.555700	-12.361040	-45.704790	-9.326119	-105.207300	 82.888920	 98.540730	-2.385833	 28.452760	 0.000004	 3.067951	-13.289040	-171.596800	 5.985424	-41.294750	 2.948496	 40.228640	 75.174010	-30.946460	 2.384659	 28.388700	-0.000001	-7.747202	 6.581502	-4.685989	-2.635674	 5.540017	 1.416931	-0.028882	-4.800266	 2.919801	-91.776250	 78.527420	-179.999900	 46.529530	 48.140150	-69.280450	-2.256644	-2.860725	-95.547710	-0.655363	-11.781080	-2.148593	-4.130319	 21.525730	 0.991547	-5.167930	 0.731704	 3.519349	-1.378229	 35.397820	-2.634230	-4.098482	 2.354470	 2.530727	-15.674930	-28.062170	-16.889640	 89.782100	 78.203870	 180.000000	-53.872880	 44.787380	 74.614430	-8.507735	-10.110470	 76.416920	-5.769345	-4.730927	 16.360580	 5.716227	 19.173190	-3.685159	 5.027444	 0.246877	-9.377972	-2.350882	 35.473990	 5.254307
-0.481478	-0.042587	 1.253227	-174.359000	-2.027009	 2.904629	 15.046450	-13.339280	 174.746100	-11.263200	-44.639010	-8.368415	-102.626400	 83.029310	 95.424120	-2.385833	 28.452760	 0.000004	 2.147386	-17.229990	-170.040600	 7.004857	-45.978420	 3.947952	 37.183470	 74.448990	-28.760860	 2.384659	 28.388700	-0.000001	-7.274921	 5.693629	-5.050069	-0.881134	 3.385309	 3.279738	-0.276830	-2.678261	 1.924446	-91.776310	 78.527400	-179.999900	 47.733750	 47.744600	-70.782200	-2.225692	-2.998413	-94.775300	-0.531723	-11.436160	-2.161213	-4.130319	 21.525730	 0.991547	-5.167930	 0.731704	 3.519349	-1.378229	 35.397820	-2.634230	-4.061864	 0.932365	 1.415683	-15.071300	-25.862870	-13.775700	 89.782080	 78.203870	-180.000000	-53.465460	 45.020250	 73.658420	-8.504838	-10.164240	 76.564470	-4.832987	-7.948871	 14.116620	 5.716227	 19.173190	-3.685159	 5.027444	 0.246877	-9.377972	-2.350882	 35.473990	 5.254307
-0.485460	-0.042428	 1.254798	-173.222600	-1.114396	 2.673930	 11.779820	-12.949670	 175.837300	-10.143710	-43.488800	-7.412714	-100.827800	 83.003780	 93.033810	-2.385833	 28.452760	 0.000004	 4.028342	-21.336160	-168.309100	 5.993524	-49.180560	 3.386374	 38.129800	 73.262410	-29.562890	 2.384659	 28.388700	-0.000001	-5.867500	 4.400627	-5.451419	 1.583594	 3.520157	 6.250842	-0.442161	-2.054995	 0.354768	-91.776150	 78.527360	 180.000000	 48.595530	 47.380790	-72.119940	-2.212178	-3.099295	-94.452430	-0.443911	-11.074750	-2.180847	-4.130319	 21.525730	 0.991547	-5.167930	 0.731704	 3.519349	-1.378229	 35.397820	-2.634230	-4.050753	-0.526039	 0.560161	-14.651910	-23.966340	-11.269540	 89.782100	 78.203830	 180.000000	-53.279870	 45.234140	 72.501340	-8.374187	-10.346770	 77.557920	-4.407187	-13.235700	 11.533260	 5.716227	 19.173190	-3.685159	 5.027444	 0.246877	-9.377972	-2.350882	 35.473990	 5.254307
-0.477790	-0.038834	 1.259188	-172.444500	-0.735327	 3.422276	 7.955304	-12.161440	 175.358200	-9.024258	-41.945590	-6.440500	-94.211850	 82.870600	 85.789700	-2.385833	 28.452760	 0.000004	 5.057037	-23.056370	-169.191300	 4.459839	-44.067700	 2.043760	 30.311570	 69.571940	-20.825480	 2.384659	 28.388700	-0.000001	-3.548775	 3.567259	-7.039262	 4.517068	 5.305147	 8.492477	-0.547216	-3.044365	-0.372766	-91.776280	 78.527380	-179.999900	 50.100370	 46.252980	-73.895200	-2.155126	-3.142527	-93.424400	-0.433769	-10.343750	-2.219441	-4.130319	 21.525730	 0.991547	-5.167930	 0.731704	 3.519349	-1.378229	 35.397820	-2.634230	-4.439526	 0.739970	 1.749212	-15.203580	-25.224990	-13.849550	 89.782140	 78.203890	 180.000000	-52.931530	 45.302480	 70.958040	-8.082885	-9.685926	 78.444540	-3.904532	-20.106940	 9.022862	 5.716227	 19.173190	-3.685159	 5.027444	 0.246877	-9.377972	-2.350882	 35.473990	 5.254307
-0.465565	-0.032440	 1.263142	-171.804800	 0.116350	 4.067778	 4.106977	-12.301810	 174.593300	-7.926294	-41.310830	-5.626319	-83.585510	 82.158160	 74.674500	-2.385833	 28.452760	 0.000004	 6.546393	-24.246050	-170.763200	 3.396105	-38.413800	 1.164287	 25.327810	 68.328320	-14.089340	 2.384659	 28.388700	-0.000001	-1.438901	 2.513980	-8.075064	 7.129613	 7.021919	 8.166245	-0.652077	-4.207921	 0.129661	-91.776180	 78.527380	-180.000000	 51.491930	 45.291320	-75.438960	-2.085313	-3.213844	-92.164170	-0.390215	-9.707960	-2.253969	-4.130319	 21.525730	 0.991547	-5.167930	 0.731704	 3.519349	-1.378229	 35.397820	-2.634230	-4.658798	 0.669163	 2.045117	-15.423890	-25.588680	-14.160610	 89.782140	 78.203870	 180.000000	-52.761390	 45.407500	 69.309940	-8.057611	-9.945069	 78.935710	-5.390712	-26.055730	 6.429553	 5.716227	 19.173190	-3.685159	 5.027444	 0.246877	-9.377972	-2.350882	 35.473990	 5.254307
-0.452547	-0.024474	 1.265627	-171.157000	 0.873588	 3.880640	 0.484555	-12.282630	 174.482600	-6.722655	-40.806870	-4.774964	-77.984730	 82.170620	 68.154260	-2.385833	 28.452760	 0.000004	 11.492750	-24.590230	-170.956400	 0.787711	-35.550640	-0.427320	 30.724740	 69.187680	-17.372460	 2.384659	 28.388700	-0.000001	 0.224156	 1.555115	-9.191102	 9.210153	 8.349116	 10.313630	-0.986955	-5.123480	-1.017945	-91.776180	 78.527330	 180.000000	 52.664690	 44.732170	-76.435380	-2.024298	-3.215447	-91.114080	-0.405695	-9.259474	-2.276096	-4.130319	 21.525730	 0.991547	-5.167930	 0.731704	 3.519349	-1.378229	 35.397820	-2.634230	-4.872208	-0.482866	 1.743113	-15.415630	-25.136550	-12.827390	 89.782140	 78.203850	 180.000000	-52.889660	 45.231480	 68.123470	-8.110963	-10.251220	 79.015690	-6.201129	-31.939320	 4.353625	 5.716227	 19.173190	-3.685159	 5.027444	 0.246877	-9.377972	-2.350882	 35.473990	 5.254307
-0.439584	-0.015787	 1.267193	-170.478500	 1.333564	 4.588360	-3.908458	-11.979030	 173.355900	-5.381169	-40.715270	-3.884352	-76.822560	 81.060810	 66.276410	-2.385833	 28.452760	 0.000004	 17.599250	-24.791230	-171.883400	-2.730789	-34.631760	-2.420236	 37.025050	 70.156350	-20.911430	 2.384659	 28.388700	-0.000001	 1.547369	 0.855332	-10.277730	 11.168760	 9.070681	 10.512540	-1.225778	-5.740217	-0.965703	-91.776210	 78.527380	-180.000000	 53.790900	 44.306680	-77.211240	-1.952574	-3.208030	-89.863080	-0.421224	-8.769908	-2.298107	-4.130319	 21.525730	 0.991547	-5.167930	 0.731704	 3.519349	-1.378229	 35.397820	-2.634230	-5.350527	-1.139818	 2.416685	-15.705310	-25.015300	-13.192450	 89.782070	 78.203890	-180.000000	-53.004800	 44.683160	 67.130800	-8.109882	-10.150020	 78.941850	-7.650891	-36.850810	 1.599155	 5.716227	 19.173190	-3.685159	 5.027444	 0.246877	-9.377972	-2.350882	 35.473990	 5.254307
-0.432002	-0.010423	 1.267954	-170.167500	 1.561287	 4.784091	-7.779856	-11.495130	 173.258800	-4.186978	-40.642020	-3.096864	-74.123880	 81.213680	 62.530050	-2.385833	 28.452760	 0.000004	 18.299280	-25.231360	-172.411900	-3.387865	-34.537940	-2.788661	 36.544900	 68.602090	-20.345520	 2.384659	 28.388700	-0.000001	 2.401615	 0.147340	-11.025530	 12.161110	 10.381220	 11.289410	-1.496203	-6.794785	-1.272860	-91.776210	 78.527380	-180.000000	 54.386830	 44.005500	-77.368480	-1.895519	-3.253657	-88.885150	-0.376841	-8.307170	-2.321906	-4.130319	 21.525730	 0.991547	-5.167930	 0.731704	 3.519349	-1.378229	 35.397820	-2.634230	-5.586455	-1.147713	 2.322448	-15.946420	-25.831060	-12.694970	 89.782020	 78.203830	-179.999900	-53.419690	 44.397780	 66.811670	-8.194102	-9.960719	 78.281890	-8.141200	-40.443630	 0.694967	 5.716227	 19.173190	-3.685159	 5.027444	 0.246877	-9.377972	-2.350882	 35.473990	 5.254307
